<svg width="33" height="30" viewBox="0 0 33 30" fill="none" xmlns="http://www.w3.org/2000/svg">
<path d="M18.5119 0C13.5342 0 9.17365 3.1493 8.22749 7.32395C3.70237 7.32395 0 10.6197 0 14.6479C0 16.0028 0.452512 17.2479 1.15185 18.3099H12.3412V16.4789C12.3412 13.4395 15.0974 10.9859 18.5119 10.9859C21.9263 10.9859 24.6825 13.4395 24.6825 16.4789V18.3099H32.5397C32.7866 17.724 32.91 17.138 32.91 16.4789C32.91 14.0986 31.1822 11.7549 28.7962 10.9859V9.15494C28.7962 4.10141 24.1888 0 18.5119 0ZM17.8537 14.6479C17.4279 14.7753 17.0607 15.0232 16.8082 15.3539C16.5556 15.6845 16.4316 16.0796 16.455 16.4789V21.9719H10.2844L18.5119 29.2958L26.7393 21.9719H20.5687V16.4789C20.5737 16.208 20.5111 15.9395 20.3854 15.6928C20.2597 15.4461 20.0741 15.2272 19.8419 15.0521C19.6098 14.8769 19.3368 14.7498 19.0428 14.6799C18.7488 14.61 18.441 14.5991 18.1416 14.6479C18.0594 14.6435 17.977 14.6435 17.8948 14.6479H17.8537Z" fill="#0E2C4E" fill-opacity="0.85"/>
</svg>
